<?xml version="1.0" encoding="UTF-8"?>
<svg id="Layer_2" data-name="Layer 2" xmlns="http://www.w3.org/2000/svg" viewBox="0 0 1090.66 270.04">
  <defs>
    <style>
      .cls-1 {
        fill: #2f2e41;
      }

      .cls-2 {
        fill: #fff;
      }

      .cls-3 {
        opacity: .5;
      }

      .cls-4 {
        fill: #3f3d56;
      }

      .cls-5 {
        fill: #e6e6e6;
      }

      .cls-6 {
        fill: #d80062;
      }

      .cls-7 {
        fill: #ffb8b8;
      }

      .cls-8 {
        fill: #a0616a;
      }

      .cls-9 {
        fill: #ccc;
      }

      .cls-10 {
        fill: #b3b3b3;
      }

      .cls-11 {
        fill: #f2f2f2;
      }
    </style>
  </defs>
  <g id="Layer_1-2">
    <g class="cls-3">
      <path class="cls-11" d="m19.52,268.09c0-6.52,5.13-11.81,11.44-11.8,6.31,0,11.42,5.29,11.42,11.8"/>
      <path class="cls-9" d="m30.96,268.09c-.17,0-.31-.14-.31-.32v-6.22c0-.18.14-.32.31-.32s.31.14.31.32h0v6.23c0,.18-.14.32-.31.32Z"/>
      <path class="cls-9" d="m30.96,265.95c-.07,0-.15-.03-.2-.08l-3.71-3.29c-.13-.11-.15-.31-.04-.45.11-.13.3-.15.44-.04,0,0,0,0,0,0l3.71,3.29c.13.11.14.32.03.45-.06.07-.14.11-.23.11h0Z"/>
      <path class="cls-11" d="m54.74,268.09c0-6.52,5.13-11.8,11.44-11.8,6.3,0,11.41,5.28,11.42,11.8"/>
      <path class="cls-9" d="m66.18,268.09c-.17,0-.31-.14-.31-.32v-6.22c0-.18.14-.32.31-.32.17,0,.31.14.31.32v6.22c0,.18-.14.32-.31.32Z"/>
      <path class="cls-9" d="m66.17,265.95c-.07,0-.15-.03-.2-.08l-3.71-3.29c-.13-.11-.15-.31-.04-.45.11-.14.3-.15.44-.04,0,0,0,0,0,0l3.71,3.29c.13.11.14.32.03.45-.06.07-.14.11-.23.11h0Z"/>
      <path class="cls-4" d="m347.47,248.96c.37,0,.67-.31.67-.69s-.3-.69-.67-.69h-6.33v-2.75h6.33c.37,0,.67-.31.67-.69s-.3-.69-.67-.69h-53.94c-.37,0-.67.31-.67.69s.3.69.67.69h6.33v2.75h-6.33c-.37,0-.67.31-.67.69s.3.69.67.69h6.33v2.75h-6.33c-.37,0-.67.31-.67.69s.3.69.67.69h6.33v2.75h-5.66c-.74,0-1.33.62-1.33,1.38s.6,1.38,1.33,1.38h5.39c-.04.11-.06.23-.06.34v9.63c0,.57.45,1.03,1,1.03s1-.46,1-1.03v-9.63c0-.12-.02-.23-.06-.34h38.08c-.04.11-.06.23-.06.34v9.63c0,.57.45,1.03,1,1.03s1-.46,1-1.03v-9.63c0-.12-.02-.23-.06-.34h5.39c.74,0,1.33-.62,1.33-1.38s-.6-1.38-1.33-1.38h-5.66v-2.75h6.33c.37,0,.67-.31.67-.69s-.3-.69-.67-.69h-6.33v-2.75h6.33Zm-46.28-4.13h38.62v2.75h-38.62v-2.75Zm38.62,11.01h-38.62v-2.75h38.62v2.75Zm0-4.13h-38.62v-2.75h38.62v2.75Z"/>
      <path class="cls-5" d="m144.37,220.09c0-12.15-9.54-40.98-21.31-40.98s-21.31,28.83-21.31,40.98,9.54,22.02,21.31,22.02,21.31-9.86,21.31-22.02h0Z"/>
      <path class="cls-11" d="m139.04,220.09c0-12.15-9.54-40.98-21.31-40.98s-21.31,28.83-21.31,40.98,9.54,22.02,21.31,22.02,21.31-9.86,21.31-22.02h0Z"/>
      <path class="cls-9" d="m118.4,269.31c-.37,0-.67-.31-.67-.69v-61.33c0-.38.3-.69.67-.69s.67.31.67.69v61.33c0,.38-.3.69-.67.69Z"/>
      <path class="cls-9" d="m118.4,217.35c-.37,0-.67-.31-.67-.69,0-.18.07-.36.19-.49l8.71-9c.26-.27.68-.27.94,0s.26.7,0,.97l-8.71,9c-.12.13-.29.2-.47.2Z"/>
      <path class="cls-4" d="m363.46,269.31c-.37,0-.67-.31-.67-.69v-61.33c0-.38.3-.69.67-.69s.67.31.67.69v61.33c0,.38-.3.69-.67.69Z"/>
      <path class="cls-5" d="m434.71,220.09c0-12.15-9.54-40.98-21.31-40.98s-21.31,28.83-21.31,40.98,9.54,22.02,21.31,22.02,21.31-9.86,21.31-22.02h0Z"/>
      <path class="cls-11" d="m429.39,220.09c0-12.15-9.54-40.98-21.31-40.98s-21.31,28.83-21.31,40.98,9.54,22.02,21.31,22.02,21.31-9.86,21.31-22.02h0Z"/>
      <path class="cls-9" d="m408.74,269.31c-.37,0-.67-.31-.67-.69v-61.33c0-.38.3-.69.67-.69s.67.31.67.69v61.33c0,.38-.3.69-.67.69Z"/>
      <path class="cls-9" d="m408.74,217.35c-.37,0-.67-.31-.67-.69,0-.18.07-.36.19-.49l8.71-9c.26-.27.68-.27.94,0s.26.7,0,.97l-8.71,9c-.12.13-.29.2-.47.2Z"/>
      <path class="cls-5" d="m188.99,31.65h-10.65c-1.65,0-2.99-1.39-3-3.1V3.1c0-1.71,1.34-3.09,3-3.1h10.65c1.65,0,2.99,1.39,3,3.1v25.46c0,1.71-1.34,3.09-3,3.1Z"/>
      <path class="cls-5" d="m230.94,269h-54.61c-3.12,0-5.66-2.62-5.66-5.85V35.43c0-3.23,2.54-5.84,5.66-5.85h54.61c3.12,0,5.66,2.62,5.66,5.85v227.73c0,3.23-2.54,5.84-5.66,5.85Z"/>
      <path class="cls-11" d="m198.31,269h-54.61c-3.12,0-5.66-2.62-5.66-5.85V35.43c0-3.23,2.54-5.84,5.66-5.85h54.61c3.12,0,5.66,2.62,5.66,5.85v227.73c0,3.23-2.54,5.84-5.66,5.85Z"/>
      <path class="cls-11" d="m179,31.65h-10.65c-1.65,0-2.99-1.39-3-3.1V3.1c0-1.71,1.34-3.09,3-3.1h10.65c1.65,0,2.99,1.39,3,3.1v25.46c0,1.71-1.34,3.09-3,3.1Z"/>
      <path class="cls-2" d="m165.01,81.18h-12.65c-.92,0-1.66-.77-1.66-1.72v-19.95c0-.95.75-1.72,1.66-1.72h12.65c.92,0,1.66.77,1.66,1.72v19.95c0,.95-.75,1.72-1.66,1.72Z"/>
      <path class="cls-2" d="m189.65,81.18h-12.65c-.92,0-1.66-.77-1.66-1.72v-19.95c0-.95.75-1.72,1.66-1.72h12.65c.92,0,1.66.77,1.66,1.72v19.95c0,.95-.75,1.72-1.66,1.72Z"/>
      <path class="cls-2" d="m165.01,117.65h-12.65c-.92,0-1.66-.77-1.66-1.72v-19.95c0-.95.75-1.72,1.66-1.72h12.65c.92,0,1.66.77,1.66,1.72v19.95c0,.95-.75,1.72-1.66,1.72Z"/>
      <path class="cls-2" d="m189.65,117.65h-12.65c-.92,0-1.66-.77-1.66-1.72v-19.95c0-.95.75-1.72,1.66-1.72h12.65c.92,0,1.66.77,1.66,1.72v19.95c0,.95-.75,1.72-1.66,1.72Z"/>
      <path class="cls-2" d="m165.01,154.11h-12.65c-.92,0-1.66-.77-1.66-1.72v-19.95c0-.95.75-1.72,1.66-1.72h12.65c.92,0,1.66.77,1.66,1.72v19.95c0,.95-.75,1.72-1.66,1.72Z"/>
      <path class="cls-2" d="m189.65,154.11h-12.65c-.92,0-1.66-.77-1.66-1.72v-19.95c0-.95.75-1.72,1.66-1.72h12.65c.92,0,1.66.77,1.66,1.72v19.95c0,.95-.75,1.72-1.66,1.72Z"/>
      <path class="cls-2" d="m165.01,190.57h-12.65c-.92,0-1.66-.77-1.66-1.72v-19.95c0-.95.75-1.72,1.66-1.72h12.65c.92,0,1.66.77,1.66,1.72v19.95c0,.95-.75,1.72-1.66,1.72Z"/>
      <path class="cls-2" d="m189.65,190.57h-12.65c-.92,0-1.66-.77-1.66-1.72v-19.95c0-.95.75-1.72,1.66-1.72h12.65c.92,0,1.66.77,1.66,1.72v19.95c0,.95-.75,1.72-1.66,1.72Z"/>
      <path class="cls-2" d="m165.01,227.04h-12.65c-.92,0-1.66-.77-1.66-1.72v-19.95c0-.95.75-1.72,1.66-1.72h12.65c.92,0,1.66.77,1.66,1.72v19.95c0,.95-.75,1.72-1.66,1.72Z"/>
      <path class="cls-2" d="m189.65,227.04h-12.65c-.92,0-1.66-.77-1.66-1.72v-19.95c0-.95.75-1.72,1.66-1.72h12.65c.92,0,1.66.77,1.66,1.72v19.95c0,.95-.75,1.72-1.66,1.72Z"/>
      <path class="cls-5" d="m464.01,152.05h-10.65c-1.65,0-2.99-1.39-3-3.1v-14.45c0-1.71,1.34-3.09,3-3.1h10.65c1.65,0,2.99,1.39,3,3.1v14.45c0,1.71-1.34,3.09-3,3.1Z"/>
      <path class="cls-5" d="m553.91,269.69h-54.61c-3.12,0-5.66-2.62-5.66-5.85v-109.39c0-3.23,2.54-5.84,5.66-5.85h54.61c3.12,0,5.66,2.62,5.66,5.85v109.39c0,3.23-2.54,5.84-5.66,5.85Z"/>
      <path class="cls-11" d="m521.28,269.69h-94.56c-3.12,0-5.66-2.62-5.66-5.85v-109.39c0-3.23,2.54-5.84,5.66-5.85h94.56c3.12,0,5.66,2.62,5.66,5.85v109.39c0,3.23-2.54,5.84-5.66,5.85Z"/>
      <path class="cls-11" d="m454.03,152.05h-10.65c-1.65,0-2.99-1.39-3-3.1v-14.45c0-1.71,1.34-3.09,3-3.1h10.65c1.65,0,2.99,1.39,3,3.1v14.45c0,1.71-1.34,3.09-3,3.1Z"/>
      <path class="cls-2" d="m468.01,202.61h-12.65c-.92,0-1.66-.77-1.66-1.72v-19.95c0-.95.75-1.72,1.66-1.72h12.65c.92,0,1.66.77,1.66,1.72v19.95c0,.95-.75,1.72-1.66,1.72Z"/>
      <path class="cls-2" d="m492.65,202.61h-12.65c-.92,0-1.66-.77-1.66-1.72v-19.95c0-.95.75-1.72,1.66-1.72h12.65c.92,0,1.66.77,1.66,1.72v19.95c0,.95-.75,1.72-1.66,1.72Z"/>
      <path class="cls-2" d="m468.01,239.08h-12.65c-.92,0-1.66-.77-1.66-1.72v-19.95c0-.95.75-1.72,1.66-1.72h12.65c.92,0,1.66.77,1.66,1.72v19.95c0,.95-.75,1.72-1.66,1.72Z"/>
      <path class="cls-2" d="m492.65,239.08h-12.65c-.92,0-1.66-.77-1.66-1.72v-19.95c0-.95.75-1.72,1.66-1.72h12.65c.92,0,1.66.77,1.66,1.72v19.95c0,.95-.75,1.72-1.66,1.72Z"/>
      <path class="cls-5" d="m697.09,270.04H.67c-.37,0-.67-.31-.67-.69s.3-.69.67-.69h696.42c.37,0,.67.31.67.69s-.3.69-.67.69Z"/>
      <path class="cls-5" d="m276.89,220.09c0-12.15-9.54-40.98-21.31-40.98s-21.31,28.83-21.31,40.98,9.54,22.02,21.31,22.02,21.31-9.86,21.31-22.02h0Z"/>
      <path class="cls-11" d="m271.56,220.09c0-12.15-9.54-40.98-21.31-40.98s-21.31,28.83-21.31,40.98,9.54,22.02,21.31,22.02,21.31-9.86,21.31-22.02h0Z"/>
      <path class="cls-9" d="m250.92,269.31c-.37,0-.67-.31-.67-.69v-61.33c0-.38.3-.69.67-.69s.67.31.67.69v61.33c0,.38-.3.69-.67.69Z"/>
      <path class="cls-9" d="m250.92,217.35c-.37,0-.67-.31-.67-.69,0-.18.07-.36.19-.49l8.71-9c.26-.27.68-.27.94,0s.26.7,0,.97l-8.71,9c-.12.13-.29.2-.47.2Z"/>
      <path class="cls-5" d="m617.18,220.09c0-12.15-9.54-40.98-21.31-40.98s-21.31,28.83-21.31,40.98,9.54,22.02,21.31,22.02,21.31-9.86,21.31-22.02h0Z"/>
      <path class="cls-11" d="m611.85,220.09c0-12.15-9.54-40.98-21.31-40.98s-21.31,28.83-21.31,40.98,9.54,22.02,21.31,22.02,21.31-9.86,21.31-22.02h0Z"/>
      <path class="cls-9" d="m591.21,269.31c-.37,0-.67-.31-.67-.69v-61.33c0-.38.3-.69.67-.69s.67.31.67.69v61.33c0,.38-.3.69-.67.69Z"/>
      <path class="cls-9" d="m591.21,217.35c-.37,0-.67-.31-.67-.69,0-.18.07-.36.19-.49l8.71-9c.26-.27.68-.27.94,0s.26.7,0,.97l-8.71,9c-.12.13-.29.2-.47.2Z"/>
      <path class="cls-4" d="m370.78,227.73h-14.65c-.92,0-1.66-.77-1.66-1.72v-15.14c0-.95.75-1.72,1.66-1.72h14.65c.92,0,1.66.77,1.66,1.72v15.14c0,.95-.75,1.72-1.66,1.72Z"/>
      <path class="cls-7" d="m513,235.1c.6.16.97.8.81,1.43-.02.07-.04.13-.07.19l2.9,2.88-2.04.47-2.44-2.81c-.55-.31-.76-1.03-.45-1.6.25-.48.79-.71,1.3-.57h0Z"/>
      <path class="cls-6" d="m517.08,242.69l-3.57-3.46c-.2-.2-.21-.53-.02-.74,0,0,0,0,0,0l.73-.76c.18-.19.47-.21.67-.05l2.99,2.36,1.87-4.68c.3-.75,1.12-1.1,1.85-.79.03.01.06.02.08.04h0c.56.28.88.91.77,1.55-.34,2.13-2.39,4.94-3.59,6.43-.33.42-.89.57-1.38.38-.15-.06-.29-.15-.41-.27Z"/>
      <path class="cls-2" d="m515.07,239.33l-2.63-3.94c-.07-.11-.04-.25.06-.32l.11-.08c.1-.07.24-.05.31.06l2.63,3.94c.07.11.04.25-.06.32,0,0,0,0,0,0l-.11.08c-.1.07-.24.05-.31-.06h0Z"/>
      <path class="cls-4" d="m514.34,239.36l-2.18-3.27c-.19-.29-.12-.69.16-.89l.22-.16,2.89,4.32-.22.16h0c-.28.2-.67.13-.86-.16Z"/>
      <polygon class="cls-7" points="514.6 267.58 513.23 267.42 513.41 261.91 515.21 262.12 514.6 267.58"/>
      <path class="cls-1" d="m514.8,269l-4.42-.53v-.06c.12-.98.98-1.69,1.93-1.57h0l2.7.32-.21,1.84Z"/>
      <polygon class="cls-7" points="530.54 266.54 529.22 266.96 527.02 261.9 528.97 261.28 530.54 266.54"/>
      <path class="cls-1" d="m531.27,267.75l-4.25,1.36-.02-.06c-.28-.94.23-1.95,1.14-2.24t0,0h0l2.6-.83.53,1.77Z"/>
      <path class="cls-1" d="m513.07,266.31c-.29-.09-.46-.41-.38-.71l.83-9.83c.04-.45.17-.88.4-1.27l5-8.58,4.48.83h.03c2.18,1.39,4.11,8.06,5.98,14.52.29,1,.59,2.04.88,3.03.11.29-.02.63-.3.75l-1.36.59c-.27.12-.57,0-.71-.26l-6.97-13.18s-.05-.06-.09-.06c-.04,0-.07,0-.1.04l-4.04,4.73-1.49,9.01v.02c-.12.27-.4.41-.67.33l-1.46.03h0s-.03,0-.03,0Z"/>
      <path class="cls-6" d="m518.68,246.87h-.03s0-.04,0-.04c-.02-.07-2.07-7.22-.22-11.79h0c.05-.11,1.34-2.67,2.83-2.92h.04s.49.93.49.93c.15.16,2.78,2.98,1.59,7.83.11.4,1.56,5.86.77,6.67-.29.21-.64.3-.99.26-1.52-.13-3.02-.45-4.47-.94Z"/>
      <ellipse class="cls-1" cx="520.95" cy="227.63" rx="3.49" ry="3.61"/>
      <ellipse class="cls-7" cx="519.56" cy="228.36" rx="2.76" ry="2.86"/>
      <path class="cls-1" d="m521.34,231.14c-.25.09-.56.17-.76-.02-.17-.23-.19-.54-.04-.78.14-.24.26-.49.35-.75.05-.4-.1-.8-.41-1.06-.3-.24-.64-.41-1-.52l-1.94-.71c-.5-.12-.95-.42-1.26-.85-.34-.73-.07-1.61.6-2.02.67-.35,1.45-.36,2.13-.04.37.18.75.33,1.13.47.77.21,1.66.02,2.34.47.58.46.9,1.19.85,1.94-.06.75-.25,1.48-.57,2.15-.15.42-.36.8-.63,1.15-.27.34-.68.52-1.11.49l.33.07Z"/>
      <ellipse class="cls-1" cx="523.87" cy="225.88" rx="2.25" ry="2.33"/>
      <path class="cls-2" d="m520.16,229.26c0-.13.1-.23.22-.23s.23.1.23.23c0,.09-.06.18-.14.22v.51s-.04.09-.08.09-.08-.04-.09-.09h0v-.51c-.08-.04-.14-.12-.14-.22Z"/>
      <path class="cls-7" d="m513.14,237.54c.62-.06,1.18.41,1.24,1.05,0,.07,0,.14,0,.21l3.69,1.66-1.75,1.18-3.23-1.76c-.62-.09-1.05-.69-.96-1.33.08-.54.5-.95,1.02-1Z"/>
      <path class="cls-6" d="m519.52,243.18l-4.52-1.96c-.26-.11-.38-.42-.27-.69,0,0,0,0,0-.01l.43-.98c.1-.24.37-.36.61-.29l3.6,1.14.17-5.06c.03-.81.68-1.44,1.46-1.41.03,0,.06,0,.09,0h0c.62.06,1.13.54,1.25,1.17.4,2.12-.57,5.49-1.19,7.32-.17.51-.64.85-1.16.85-.16,0-.33-.03-.48-.1Z"/>
      <path class="cls-7" d="m275.01,246.47c.39-.4.39-1.04,0-1.45-.04-.04-.09-.08-.13-.12l-.5-3.4-2.05.67,1.12,3.04c-.29.48-.14,1.12.33,1.41.39.25.9.19,1.22-.15h0Z"/>
      <path class="cls-6" d="m272.9,244.87l-1.27-6.11c-.25-1.19.12-2.43.97-3.27,1.62-1.61,3.7-3.65,4.42-4.17.68-.5,1.49-.75,2.32-.71h.02s1.09,1.07,1.09,1.07l-2.37,4.03-3.6,2.33.4,5.99-1.98.84Z"/>
      <path class="cls-9" d="m272.02,236.57h5.31c.23,0,.42.19.42.43h0c0,.24-.19.43-.42.43h-5.31c-.23,0-.42-.19-.42-.43h0c0-.24.19-.43.42-.43Z"/>
      <path class="cls-9" d="m272.02,245.93h5.31c.23,0,.42.19.42.43h0c0,.24-.19.43-.42.43h-5.31c-.23,0-.42-.19-.42-.43h0c0-.24.19-.43.42-.43Z"/>
      <path class="cls-9" d="m274.73,269.39c-.11,0-.2-.09-.21-.2l-2.66-32.18c-.01-.12.07-.22.19-.23.11-.01.22.08.23.2l2.45,29.73,2.38-29.73c0-.12.11-.21.23-.2.11.01.2.11.19.23l-2.58,32.18c0,.11-.1.2-.21.2h0Z"/>
      <ellipse class="cls-7" cx="280.69" cy="226.5" rx="2.73" ry="2.82"/>
      <polygon class="cls-7" points="272.55 268.1 271.25 267.67 272.23 262.29 274.14 262.92 272.55 268.1"/>
      <path class="cls-1" d="m272.47,269.29l-4.18-1.38.03-.11c.28-.89,1.2-1.39,2.07-1.1l2.62.86-.53,1.73Z"/>
      <polygon class="cls-7" points="282 268.07 280.64 268.07 279.99 262.64 282 262.64 282 268.07"/>
      <path class="cls-1" d="m278.06,269.33h4.18v-1.6h-2.64c-.85,0-1.54.71-1.54,1.59h0Z"/>
      <path class="cls-1" d="m281.96,266.31l-.46-.07c-.58-.04-1.15-.15-1.7-.33-.11-.05-.12-.83-.05-5.19.05-3.2.11-7.19,0-9.33-.01-.21-.19-.37-.39-.35-.14,0-.26.1-.31.23-1.04,2.48-2.78,8.03-3.94,11.7-.4,1.28-.72,2.29-.92,2.89-.08.24-.32.37-.56.31-.95-.25-.89-.35-2.24-.71-.24-.06-.39-.31-.34-.57.24-1.19,4.72-20.51,5.06-22.35.05-.26.29-.44.55-.39,0,0,0,0,0,0,1.01.21,1.62.43,2.62.65,1.07.23,2.19.47,3.27.7h0c.11.02.2.08.27.17.3.33.67.59,1.09.75.28.14-.36.13-.11.33,1,.82-.44,17.44-1.31,21.2-.06.24-.29.4-.53.36h0Z"/>
      <path class="cls-1" d="m281.86,228.97c-.16-.7.65-2.2.49-2.9-.11-.47-1.19-.15-1.44-.56-.24-.43-.67-.71-1.14-.75-.54,0-1.07.41-1.59.23-.51-.26-.71-.89-.46-1.42,0,0,0,0,0-.01.27-.49.7-.88,1.21-1.1.8-.51,1.77-.67,2.69-.47.53.21,1.01.52,1.42.92.41.32.78.7,1.08,1.13.52.92.54,2.05.05,2.98-.5.92-1.29,1.62-2.24,1.99"/>
      <path class="cls-6" d="m275.15,245.25c.3-.51.74-2.89,1.3-6.9.38-2.73.7-5.51.87-6.93.03-.23.17-.44.37-.54.11-.05.21-.1.31-.15,2.56-1.21,5.56-.77,7.69,1.12h.01s0,.03,0,.03c0,.03.57,3.17-.59,5.3-1.14,2.1-1.15,7.64-1.15,7.7v.07l-.07-.02c-1.77-.52-8.63.39-8.7.4h-.11s.06-.08.06-.08Z"/>
      <path class="cls-9" d="m280.15,237.97h5.31c.23,0,.42.19.42.43h0c0,.24-.19.43-.42.43h-5.31c-.23,0-.42-.19-.42-.43h0c0-.24.19-.43.42-.43Z"/>
      <path class="cls-9" d="m280.15,247.33h5.31c.23,0,.42.19.42.43h0c0,.24-.19.43-.42.43h-5.31c-.23,0-.42-.19-.42-.43h0c0-.24.19-.43.42-.43Z"/>
      <path class="cls-9" d="m282.85,269.5c-.11,0-.2-.09-.21-.2l-2.66-30.89c-.01-.12.07-.22.19-.23.11-.01.22.08.23.2h0l2.45,28.44,2.38-28.44c0-.12.11-.21.23-.2.11.01.2.11.19.23l-2.58,30.89c0,.11-.1.2-.21.2h0Z"/>
      <path class="cls-7" d="m281.14,247.47c-.12-.55.22-1.1.75-1.22.06-.01.11-.02.17-.02l2.21-2.58,1.37,1.71-2.54,1.92c-.01.57-.47,1.02-1.02,1-.46-.01-.85-.35-.95-.81h0Z"/>
      <path class="cls-6" d="m282.43,245.67l3.49-4.8-1.8-3.98.13-4.72,1.47-.28h.02c.72.44,1.27,1.11,1.58,1.9.33.85,1.01,3.72,1.52,5.99.27,1.18-.07,2.43-.91,3.29l-4.28,4.42-1.22-1.82Z"/>
      <path class="cls-9" d="m267.82,268.17l4.77,1.19c.19.05.39-.04.47-.23l4.1-11.25c.04-.09.04-.19,0-.27-.04-.1-.12-.17-.22-.21l-3.58-1.41c-.11-.05-.24-.04-.35.02-.09.05-.16.14-.19.24h0s-2.53,9.92-2.53,9.92h-.04c-.79.05-1.53.37-2.12.91-.25.31-.36.7-.31,1.1Z"/>
      <polygon class="cls-10" points="271.25 262.07 271.27 261.86 275.62 262.33 275.59 262.55 271.25 262.07"/>
      <polygon class="cls-10" points="270.8 263.83 270.89 263.63 274.39 265.26 274.3 265.45 270.8 263.83"/>
      <polygon class="cls-10" points="276.07 260.83 271.95 259.42 272.04 259.22 276.16 260.63 276.07 260.83"/>
      <polygon class="cls-10" points="276.49 259.86 272.37 257.8 272.45 257.6 276.58 259.66 276.49 259.86"/>
      <polygon class="cls-10" points="270.39 265.48 270.53 265.32 273.5 267.94 273.36 268.1 270.39 265.48"/>
      <polygon class="cls-10" points="269.49 266.28 269.68 266.19 270.88 268.91 270.69 269 269.49 266.28"/>
      <path class="cls-8" d="m385.89,247.37c-.67-.16-1.08-.85-.93-1.54.02-.07.04-.15.07-.21l-4.57-10.68,2.62-.68,3.67,10.71c.61.32.86,1.1.55,1.73-.26.53-.84.81-1.4.67Z"/>
      <path class="cls-6" d="m381.3,238.29c-.15-.07-.26-.2-.31-.36l-.8-2.76c-.36-.8-.03-1.75.74-2.12.77-.38,1.69-.03,2.06.76l1.55,2.41c.17.26.1.62-.16.8-.02.02-.05.03-.07.04l-2.54,1.23c-.15.07-.32.07-.46,0Z"/>
      <path class="cls-4" d="m390.61,236.91l-2.81,2.05c-.07.06-.17.06-.25,0l-.76-.59c-.09-.07-.11-.2-.05-.3,0-.01.02-.02.03-.04l2.16-1.99c.06-.05.14-.07.21-.04l1.4.52c.11.04.17.17.13.28-.01.04-.04.08-.08.1Z"/>
      <path class="cls-2" d="m390.38,236.72s0-.08-.04-.1l-1.27-.47s-.05,0-.07.01l-1.95,1.79h-.01s-.02.09.02.12c0,0,0,0,0,0l.68.53s.06.02.09,0l2.53-1.85s.02-.02.03-.04Z"/>
      <polygon class="cls-8" points="380.39 267.5 381.8 267.5 382.48 261.86 380.39 261.86 380.39 267.5"/>
      <path class="cls-1" d="m380.03,267.03h2.79s0,0,0,0c.98,0,1.78.82,1.78,1.84h0v.06h-4.57s0-1.9,0-1.9Z"/>
      <polygon class="cls-8" points="375.65 267.5 377.07 267.5 377.74 261.86 375.65 261.86 375.65 267.5"/>
      <path class="cls-1" d="m375.29,267.03h2.79s0,0,0,0c.98,0,1.78.82,1.78,1.84h0v.06h-4.57s0-1.9,0-1.9Z"/>
      <path class="cls-1" d="m375.35,265.78c-.1-.11-.15-.26-.15-.41-.34-3.59.58-22.45,2.7-24.06h.01s6.21-1.12,6.21-1.12h0l.12.12c0,.17,1.14,16.7-1.98,25.13-.08.21-.27.34-.48.34h-1.24c-.29,0-.52-.24-.52-.54,0-.01,0-.03,0-.04l1-15.8c0-.1-.06-.18-.16-.19-.09,0-.16.05-.18.14l-2.83,16.03c-.05.23-.24.4-.47.42l-1.63.12s-.03,0-.04,0c-.14,0-.27-.06-.37-.15Z"/>
      <ellipse class="cls-8" cx="383.52" cy="227.59" rx="2.84" ry="2.93"/>
      <path class="cls-6" d="m376.69,243.88c-.12-.13-.19-.29-.19-.47l1.16-5.6c-.92-4.06.31-4.82,1.69-5.59h0s.58-1.63.58-1.63c.07-.27.34-.43.6-.36.03,0,.06.02.09.03l2.96,1.62c.13.08.23.21.27.36.05.16.05.33,0,.49l-.22.61c.56.78,1.44,3.86.51,5.05l.7,3.98c.03.3-.15.58-.43.67l-7.28.97s-.06,0-.09,0c-.12,0-.24-.05-.33-.14Z"/>
      <path class="cls-8" d="m387.3,237.45s-.09.09-.13.15l-5.71-.41-.61-1.29-2.01.7.87,2.39c.14.4.53.65.93.62l6.5-.51c.39.56,1.15.69,1.69.28.54-.4.67-1.19.28-1.75s-1.15-.69-1.69-.28c-.04.03-.08.06-.12.1Z"/>
      <path class="cls-6" d="m381.24,237.21l-2.49.86c-.27.09-.57-.06-.66-.34,0-.02-.01-.05-.02-.08l-.45-2.66c-.25-.78.16-1.63.92-1.88s1.57.17,1.82.95l1.18,2.4c.13.26.03.59-.23.72-.02.01-.05.02-.07.03h0Z"/>
      <ellipse class="cls-1" cx="381.93" cy="222.89" rx="2.31" ry="2.39"/>
      <path class="cls-1" d="m386.21,227.95c.22.05.46.03.67-.06.22-.13.37-.36.4-.62.43-2.95-2-2.71-2.29-2.84-.18-.11-.35-.24-.51-.38-.4-.23-.87-.34-1.33-.3-.55-.05-1.1.02-1.61.2-.45.22-.83.58-1.07,1.02-.24.44-.42.92-.53,1.42-.17.56-.2,1.16-.09,1.75.24.89,1,1.52,1.9,1.57-.14-.71.19-1.44.82-1.77.49-.25,1.04-.32,1.57-.19.34.07.69.12,1.04.13.34.01.76.03,1.03.06Z"/>
      <path class="cls-11" d="m608.2,268.09c0-6.52,5.13-11.8,11.45-11.79,6.3,0,11.41,5.28,11.42,11.79"/>
      <path class="cls-9" d="m619.63,268.09c-.17,0-.31-.14-.31-.32v-6.22c0-.18.14-.32.31-.32.17,0,.31.14.31.32v6.22c0,.18-.14.32-.31.32Z"/>
      <path class="cls-9" d="m619.63,265.95c-.07,0-.15-.03-.2-.08l-3.71-3.29c-.13-.11-.15-.31-.04-.45s.3-.15.44-.04c0,0,0,0,0,0l3.71,3.29c.13.11.14.32.03.45-.06.07-.14.11-.23.11h0Z"/>
      <path class="cls-11" d="m643.42,268.09c.01-9.05,7.39-16.38,16.48-16.37,9.07.01,16.42,7.33,16.43,16.37"/>
      <path class="cls-9" d="m659.85,268.09c-.17,0-.31-.14-.31-.32h0v-6.22c0-.18.14-.32.31-.32.17,0,.31.14.31.32v6.22c0,.18-.14.32-.31.32Z"/>
      <path class="cls-9" d="m659.85,265.95c-.07,0-.15-.03-.2-.08l-3.71-3.29c-.13-.11-.15-.31-.04-.45s.3-.15.44-.04c0,0,0,0,0,0l3.71,3.29c.13.11.14.32.03.45-.06.07-.14.11-.23.11h0Z"/>
      <path class="cls-5" d="m921.82,220.09c0,12.16,9.54,22.02,21.31,22.02s21.31-9.86,21.31-22.02-9.54-40.98-21.31-40.98-21.31,28.83-21.31,40.98h0Z"/>
      <path class="cls-11" d="m927.15,220.09c0,12.16,9.54,22.02,21.31,22.02s21.31-9.86,21.31-22.02-9.54-40.98-21.31-40.98-21.31,28.83-21.31,40.98h0Z"/>
      <path class="cls-9" d="m947.13,268.63v-61.33c0-.38.3-.69.67-.69s.67.31.67.69v61.33c0,.38-.3.69-.67.69s-.67-.31-.67-.69Z"/>
      <path class="cls-9" d="m947.32,217.15l-8.71-9c-.26-.27-.26-.7,0-.97s.68-.27.94,0l8.71,9c.12.13.19.3.19.49,0,.38-.3.69-.67.69-.18,0-.35-.07-.47-.2Z"/>
      <path class="cls-5" d="m889.52,77.84v-22.96c0-2.72,1.34-4.92,3-4.92h10.65c1.65,0,2.99,2.2,3,4.92v22.96c0,2.72-1.34,4.92-3,4.92h-10.65c-1.65,0-2.99-2.2-3-4.92Z"/>
      <path class="cls-5" d="m796.96,260.4V86.58c0-5.13,2.54-9.29,5.66-9.29h54.61c3.12,0,5.66,4.16,5.66,9.29v173.82c0,5.13-2.54,9.29-5.66,9.29h-54.61c-3.12,0-5.66-4.16-5.66-9.29Z"/>
      <path class="cls-11" d="m829.59,260.4V86.58c0-5.13,2.54-9.29,5.66-9.29h94.56c3.12,0,5.66,4.16,5.66,9.29v173.82c0,5.13-2.54,9.29-5.66,9.29h-94.56c-3.12,0-5.66-4.16-5.66-9.29Z"/>
      <path class="cls-11" d="m899.51,77.84v-22.96c0-2.72,1.34-4.92,3-4.92h10.65c1.65,0,2.99,2.2,3,4.92v22.96c0,2.72-1.34,4.92-3,4.92h-10.65c-1.65,0-2.99-2.2-3-4.92Z"/>
      <path class="cls-2" d="m886.86,200.89v-19.95c0-.95.75-1.72,1.66-1.72h12.65c.92,0,1.66.77,1.66,1.72v19.95c0,.95-.75,1.72-1.66,1.72h-12.65c-.92,0-1.66-.77-1.66-1.72Z"/>
      <path class="cls-2" d="m862.22,200.89v-19.95c0-.95.75-1.72,1.66-1.72h12.65c.92,0,1.66.77,1.66,1.72v19.95c0,.95-.75,1.72-1.66,1.72h-12.65c-.92,0-1.66-.77-1.66-1.72Z"/>
      <path class="cls-2" d="m886.86,237.36v-19.95c0-.95.75-1.72,1.66-1.72h12.65c.92,0,1.66.77,1.66,1.72v19.95c0,.95-.75,1.72-1.66,1.72h-12.65c-.92,0-1.66-.77-1.66-1.72Z"/>
      <path class="cls-2" d="m862.22,237.36v-19.95c0-.95.75-1.72,1.66-1.72h12.65c.92,0,1.66.77,1.66,1.72v19.95c0,.95-.75,1.72-1.66,1.72h-12.65c-.92,0-1.66-.77-1.66-1.72Z"/>
      <path class="cls-2" d="m886.86,127.57v-19.95c0-.95.75-1.72,1.66-1.72h12.65c.92,0,1.66.77,1.66,1.72v19.95c0,.95-.75,1.72-1.66,1.72h-12.65c-.92,0-1.66-.77-1.66-1.72Z"/>
      <path class="cls-2" d="m862.22,127.57v-19.95c0-.95.75-1.72,1.66-1.72h12.65c.92,0,1.66.77,1.66,1.72v19.95c0,.95-.75,1.72-1.66,1.72h-12.65c-.92,0-1.66-.77-1.66-1.72Z"/>
      <path class="cls-2" d="m886.86,164.03v-19.95c0-.95.75-1.72,1.66-1.72h12.65c.92,0,1.66.77,1.66,1.72v19.95c0,.95-.75,1.72-1.66,1.72h-12.65c-.92,0-1.66-.77-1.66-1.72Z"/>
      <path class="cls-2" d="m862.22,164.03v-19.95c0-.95.75-1.72,1.66-1.72h12.65c.92,0,1.66.77,1.66,1.72v19.95c0,.95-.75,1.72-1.66,1.72h-12.65c-.92,0-1.66-.77-1.66-1.72Z"/>
      <path class="cls-5" d="m658.78,269.35c0-.24.18-.43.41-.43h431.06c.23,0,.41.19.41.43,0,.24-.18.43-.41.43h-431.06c-.23,0-.41-.19-.41-.43Z"/>
      <path class="cls-5" d="m739.36,210.63c0,17.38,9.54,31.47,21.31,31.47s21.31-14.09,21.31-31.47-9.54-58.59-21.31-58.59c-11.77,0-21.31,41.22-21.31,58.59h0Z"/>
      <path class="cls-11" d="m744.69,210.63c0,17.38,9.54,31.47,21.31,31.47s21.31-14.09,21.31-31.47-9.54-58.59-21.31-58.59c-11.77,0-21.31,41.22-21.31,58.59h0Z"/>
      <path class="cls-9" d="m764.66,268.63v-61.33c0-.38.3-.69.67-.69s.67.31.67.69v61.33c0,.38-.3.69-.67.69s-.67-.31-.67-.69Z"/>
      <path class="cls-9" d="m764.86,217.15l-8.71-9c-.26-.27-.26-.7,0-.97s.68-.27.94,0l8.71,9c.12.13.19.3.19.49,0,.38-.3.69-.67.69-.18,0-.35-.07-.47-.2Z"/>
      <path class="cls-7" d="m843.53,235.1c.51-.14,1.04.1,1.3.57.3.57.1,1.28-.45,1.6l-2.44,2.81-2.04-.47,2.9-2.88c-.03-.06-.05-.13-.07-.19-.16-.62.2-1.26.81-1.43h0Z"/>
      <path class="cls-6" d="m839.05,242.95c-.49.19-1.04.03-1.38-.38-1.19-1.49-3.25-4.3-3.59-6.43-.1-.64.21-1.27.77-1.55h0s.06-.03.08-.04c.72-.31,1.55.05,1.85.79l1.87,4.68,2.99-2.36c.2-.16.49-.14.67.05l.73.76s0,0,0,0c.19.21.18.54-.02.74l-3.57,3.46c-.12.12-.26.21-.41.27Z"/>
      <path class="cls-2" d="m841.46,239.33c-.07.11-.21.13-.31.06l-.11-.08s0,0,0,0c-.1-.07-.13-.22-.06-.32l2.63-3.94c.07-.11.21-.13.31-.06l.11.08c.1.07.13.22.06.32l-2.63,3.94h0Z"/>
      <path class="cls-4" d="m841.34,239.52h0l-.22-.16,2.89-4.32.22.16c.28.2.35.6.16.89l-2.18,3.27c-.19.29-.58.36-.86.16Z"/>
      <polygon class="cls-7" points="841.33 262.12 843.12 261.91 843.31 267.42 841.94 267.58 841.33 262.12"/>
      <path class="cls-1" d="m841.53,267.16l2.7-.32h0c.95-.11,1.81.59,1.92,1.57v.06s-4.41.53-4.41.53l-.21-1.84Z"/>
      <polygon class="cls-7" points="827.56 261.28 829.51 261.9 827.31 266.96 825.99 266.54 827.56 261.28"/>
      <path class="cls-1" d="m825.79,265.99l2.6.83h0s0,0,0,0c.91.29,1.43,1.29,1.14,2.24l-.02.06-4.25-1.36.53-1.77Z"/>
      <path class="cls-1" d="m843.44,266.32h0s-1.46-.03-1.46-.03c-.27.08-.55-.06-.67-.33v-.02s-1.49-9.01-1.49-9.01l-4.04-4.73s-.06-.04-.1-.04c-.04,0-.07.03-.09.06l-6.97,13.18c-.14.26-.45.37-.71.26l-1.36-.59c-.28-.12-.42-.46-.3-.75.29-.99.59-2.03.88-3.03,1.87-6.46,3.8-13.13,5.98-14.51h.03s4.48-.84,4.48-.84l5,8.58c.22.39.36.82.4,1.27l.83,9.83c.08.3-.09.61-.38.71h-.03Z"/>
      <path class="cls-6" d="m833.38,247.81c-.35.04-.7-.05-.99-.26-.79-.82.66-6.27.77-6.67-1.19-4.85,1.44-7.67,1.59-7.83l.49-.94h.04c1.49.26,2.78,2.82,2.83,2.92h0c1.84,4.56-.2,11.72-.22,11.79v.03s-.04,0-.04,0c-1.45.49-2.95.8-4.47.94Z"/>
      <ellipse class="cls-1" cx="835.59" cy="227.63" rx="3.49" ry="3.61"/>
      <ellipse class="cls-7" cx="836.97" cy="228.36" rx="2.76" ry="2.86"/>
      <path class="cls-1" d="m835.52,231.06c-.42.03-.84-.15-1.11-.49-.27-.34-.48-.73-.63-1.15-.32-.67-.51-1.4-.57-2.15-.06-.75.26-1.49.85-1.94.68-.45,1.56-.26,2.34-.47.39-.13.76-.29,1.13-.47.68-.32,1.46-.3,2.13.04.68.41.94,1.29.6,2.02-.31.42-.76.72-1.26.85l-1.94.71c-.36.11-.7.28-1,.52-.31.25-.46.66-.41,1.06.09.26.2.52.35.75.14.25.12.56-.04.78-.2.19-.51.11-.76.02l.33-.07Z"/>
      <ellipse class="cls-1" cx="832.66" cy="225.88" rx="2.25" ry="2.33"/>
      <path class="cls-2" d="m836.23,229.47v.51h0c0,.05-.04.09-.09.09s-.08-.04-.08-.09v-.51c-.09-.04-.14-.12-.14-.22,0-.13.1-.23.23-.23s.23.1.22.23c0,.09-.06.18-.14.22Z"/>
      <path class="cls-7" d="m844.42,238.54c.09.64-.34,1.24-.96,1.33l-3.23,1.76-1.75-1.18,3.69-1.66c0-.07,0-.14,0-.21.06-.64.62-1.11,1.24-1.05.52.05.95.46,1.02,1Z"/>
      <path class="cls-6" d="m836.54,243.28c-.52,0-.99-.34-1.16-.85-.62-1.82-1.59-5.2-1.19-7.32.12-.63.63-1.11,1.25-1.17h0s.06,0,.09,0c.78-.03,1.43.6,1.46,1.41l.17,5.06,3.6-1.14c.24-.08.5.05.61.29l.43.98s0,0,0,.01c.11.27-.01.57-.27.69l-4.52,1.96c-.15.07-.31.1-.48.1Z"/>
      <path class="cls-8" d="m675.75,246.7c-.31-.63-.07-1.41.55-1.73l3.67-10.71,2.62.68-4.57,10.68c.03.07.05.14.07.21.16.69-.26,1.38-.93,1.54-.56.14-1.14-.14-1.4-.67Z"/>
      <path class="cls-6" d="m681.27,238.28l-2.54-1.23s-.05-.03-.07-.04c-.26-.18-.33-.53-.16-.8l1.55-2.41c.36-.8,1.28-1.14,2.06-.76.77.38,1.1,1.33.74,2.12l-.8,2.76c-.05.16-.16.29-.31.36-.15.07-.32.07-.46,0Z"/>
      <path class="cls-4" d="m672.35,236.81c-.04-.11.02-.24.13-.28l1.4-.52c.07-.03.15-.01.21.04l2.16,1.99s.02.02.03.04c.07.1.05.23-.05.3l-.76.59c-.07.06-.17.06-.25,0l-2.81-2.05s-.06-.06-.08-.1Z"/>
      <path class="cls-2" d="m672.68,236.75l2.53,1.85s.06.02.09,0l.68-.53s0,0,0,0c.03-.02.04-.07.02-.1h-.01s-1.95-1.81-1.95-1.81c-.02-.02-.05-.02-.07-.01l-1.27.47s-.06.06-.04.1c0,.01.01.03.03.04Z"/>
      <polygon class="cls-8" points="682.65 261.86 680.56 261.86 681.24 267.5 682.65 267.5 682.65 261.86"/>
      <path class="cls-1" d="m683.01,268.92h-4.57v-.06s0,0,0,0c0-1.01.8-1.84,1.78-1.84h2.79s0,1.9,0,1.9Z"/>
      <polygon class="cls-8" points="687.39 261.86 685.3 261.86 685.97 267.5 687.39 267.5 687.39 261.86"/>
      <path class="cls-1" d="m687.75,268.92h-4.57v-.06h0c0-1.01.8-1.84,1.78-1.84h2.79s0,1.9,0,1.9Z"/>
      <path class="cls-1" d="m687.32,265.93s-.03,0-.04,0l-1.63-.12c-.23-.02-.42-.19-.47-.42l-2.83-16.03c-.02-.09-.1-.15-.18-.14-.1,0-.17.09-.16.19l1,15.8s0,.03,0,.04c0,.3-.23.54-.52.54h-1.24c-.21,0-.41-.14-.48-.34-3.12-8.44-1.99-24.97-1.98-25.13l.12-.12h0l6.21,1.11h.01c2.12,1.62,3.04,20.48,2.7,24.07,0,.15-.06.3-.15.41-.1.1-.23.15-.37.15Z"/>
      <ellipse class="cls-8" cx="679.51" cy="227.59" rx="2.84" ry="2.93"/>
      <path class="cls-6" d="m686.02,244.02s-.06,0-.09,0l-7.28-.97c-.28-.09-.46-.37-.43-.67l.7-3.98c-.92-1.19-.05-4.27.51-5.05l-.22-.61c-.06-.16-.06-.33,0-.49.04-.15.14-.28.27-.36l2.96-1.62s.06-.02.09-.03c.26-.07.53.09.6.36l.58,1.62h0c1.39.77,2.62,1.53,1.69,5.59l1.16,5.6c0,.18-.07.35-.19.47-.09.09-.2.14-.33.14Z"/>
      <path class="cls-8" d="m675.62,237.35c-.54-.4-1.3-.28-1.69.28s-.27,1.34.28,1.75c.54.4,1.3.28,1.69-.28l6.5.51c.41.03.79-.22.93-.62l.87-2.39-2.01-.7-.61,1.29-5.71.41c-.04-.05-.08-.1-.13-.15-.04-.04-.08-.07-.12-.1Z"/>
      <path class="cls-6" d="m681.8,237.21s-.05-.02-.07-.03c-.26-.13-.36-.46-.23-.72l1.18-2.4c.25-.78,1.07-1.21,1.82-.95s1.17,1.1.92,1.88l-.45,2.66s-.01.05-.02.08c-.09.28-.38.43-.66.34l-2.49-.86h0Z"/>
      <ellipse class="cls-1" cx="681.11" cy="222.89" rx="2.31" ry="2.39"/>
      <path class="cls-1" d="m677.86,227.89c.35-.02.7-.06,1.04-.13.53-.12,1.09-.05,1.57.19.63.33.97,1.05.82,1.77.89-.05,1.65-.68,1.9-1.57.11-.58.08-1.18-.09-1.75-.11-.5-.29-.98-.53-1.42-.25-.45-.62-.8-1.07-1.02-.52-.19-1.07-.26-1.61-.2-.46-.04-.92.07-1.33.3-.16.14-.33.27-.51.38-.29.13-2.72-.12-2.29,2.84.03.26.18.49.4.62.21.08.44.1.67.06.28-.03.69-.05,1.03-.06Z"/>
      <path class="cls-11" d="m725.47,268.09c0-6.51,5.11-11.79,11.42-11.79,6.31,0,11.44,5.27,11.45,11.79"/>
      <path class="cls-9" d="m736.59,267.77v-6.22c0-.18.14-.32.31-.32.17,0,.31.14.31.32v6.22c0,.18-.14.32-.31.32-.17,0-.31-.14-.31-.32Z"/>
      <path class="cls-9" d="m736.9,265.95c-.09,0-.18-.04-.23-.11-.11-.13-.1-.34.03-.45l3.71-3.29s0,0,0,0c.13-.11.33-.1.44.04s.09.34-.04.45l-3.71,3.29c-.06.05-.13.08-.2.08h0Z"/>
      <path class="cls-11" d="m690.25,268.09c0-6.51,5.11-11.79,11.42-11.79,6.31,0,11.44,5.27,11.45,11.79"/>
      <path class="cls-9" d="m701.37,267.77v-6.22c0-.18.14-.32.31-.32.17,0,.31.14.31.32v6.22s0,0,0,0c0,.18-.14.32-.31.32-.17,0-.31-.14-.31-.32Z"/>
      <path class="cls-9" d="m701.68,265.95c-.09,0-.18-.04-.23-.11-.11-.13-.1-.34.03-.45l3.71-3.29s0,0,0,0c.13-.11.33-.1.44.04s.09.34-.04.45l-3.71,3.29c-.06.05-.13.08-.2.08h0Z"/>
    </g>
  </g>
</svg>