<?xml version="1.0" standalone="no"?>
<!DOCTYPE svg PUBLIC "-//W3C//DTD SVG 20010904//EN"
 "http://www.w3.org/TR/2001/REC-SVG-20010904/DTD/svg10.dtd">
<svg version="1.0" xmlns="http://www.w3.org/2000/svg"
 width="512.000000pt" height="512.000000pt" viewBox="0 0 512.000000 512.000000"
 preserveAspectRatio="xMidYMid meet">
<metadata>
Created by potrace 1.14, written by Peter Selinger 2001-2017
</metadata>
<g transform="translate(0.000000,512.000000) scale(0.100000,-0.100000)"
fill="#000000" stroke="none">
<path d="M1949 4565 c-2 -1 -35 -6 -74 -9 -58 -6 -142 -19 -259 -42 -114 -22
-290 -82 -415 -141 -68 -32 -200 -105 -226 -126 -5 -4 -41 -30 -79 -58 -132
-99 -281 -266 -368 -414 -95 -161 -169 -372 -193 -550 -3 -28 -8 -64 -10 -80
-6 -43 -6 -364 0 -400 3 -16 7 -48 9 -70 31 -286 185 -610 395 -829 358 -373
965 -573 1581 -521 47 4 98 7 115 8 28 2 35 -7 120 -145 178 -291 285 -422
401 -490 57 -33 196 -93 239 -103 11 -2 38 -9 60 -14 89 -21 136 -26 275 -25
116 1 163 6 234 24 341 86 624 307 869 677 36 54 76 117 89 141 64 120 87 166
83 171 -2 4 -183 6 -402 6 l-398 -1 -3 -30 c-10 -107 -72 -237 -158 -333 -74
-80 -188 -160 -266 -187 -115 -40 -332 -10 -463 62 -27 15 -79 57 -115 93 -64
64 -162 200 -164 228 -1 9 37 28 99 52 521 198 863 584 975 1100 28 126 35
205 35 381 0 211 -9 288 -50 453 -91 359 -322 673 -645 879 -200 128 -479 229
-735 267 -38 6 -86 13 -105 17 -37 6 -445 15 -451 9z m301 -165 c206 -55 354
-294 419 -675 6 -33 12 -72 15 -86 2 -14 7 -57 11 -95 4 -38 9 -77 11 -86 24
-133 23 -821 -2 -1038 -17 -154 -40 -289 -64 -385 -29 -114 -86 -275 -98 -275
-4 0 -22 20 -40 44 -44 59 -185 203 -247 253 -106 85 -214 143 -331 179 -75
22 -223 26 -284 8 -25 -8 -50 -14 -56 -14 -7 0 -15 28 -19 68 -4 37 -9 76 -11
86 -25 133 -25 1071 1 1116 1 3 6 39 9 80 4 41 14 105 22 142 7 37 16 82 19
100 19 110 94 300 151 386 65 96 164 171 263 197 56 14 169 12 231 -5z m-395
-2453 c121 -44 276 -170 403 -327 29 -36 58 -71 64 -79 14 -17 0 -26 -68 -46
-99 -30 -222 -21 -310 22 -110 53 -198 156 -259 302 -51 122 -52 127 -7 139
48 12 126 7 177 -11z"/>
</g>
</svg>
