<?xml version="1.0" standalone="no"?>
<!DOCTYPE svg PUBLIC "-//W3C//DTD SVG 20010904//EN"
 "http://www.w3.org/TR/2001/REC-SVG-20010904/DTD/svg10.dtd">
<svg version="1.0" xmlns="http://www.w3.org/2000/svg"
 width="588.000000pt" height="588.000000pt" viewBox="0 0 588.000000 588.000000"
 preserveAspectRatio="xMidYMid meet">
<metadata>
Created by potrace 1.14, written by Peter Selinger 2001-2017
</metadata>
<g transform="translate(0.000000,588.000000) scale(0.100000,-0.100000)"
fill="#000000" stroke="none">
<path d="M2169 5576 c-2 -2 -38 -6 -79 -10 -76 -6 -127 -12 -190 -22 -19 -3
-48 -7 -64 -9 -15 -3 -35 -7 -45 -9 -9 -3 -32 -8 -51 -11 -51 -9 -185 -43
-260 -67 -462 -147 -838 -405 -1093 -748 -92 -123 -237 -389 -237 -434 0 -8
-4 -16 -8 -18 -11 -4 -67 -192 -91 -303 -37 -171 -45 -263 -46 -495 0 -235 10
-336 49 -520 3 -14 8 -38 11 -55 4 -16 10 -41 16 -55 5 -14 10 -34 12 -45 2
-11 8 -29 12 -40 4 -11 23 -60 41 -108 39 -102 113 -252 155 -315 16 -24 29
-45 29 -47 0 -3 6 -13 14 -22 8 -10 37 -47 63 -83 53 -72 229 -253 311 -320
30 -24 84 -64 120 -89 37 -25 70 -50 74 -56 4 -5 8 -6 8 -1 0 5 8 2 18 -6 32
-29 225 -129 322 -168 30 -12 64 -26 75 -30 31 -13 55 -20 59 -17 1 1 10 -4
19 -12 10 -7 17 -11 17 -8 0 3 15 0 33 -8 17 -7 35 -14 39 -14 4 -1 13 -3 20
-6 147 -47 408 -93 628 -111 59 -5 384 -5 435 0 22 2 76 7 120 11 44 4 83 9
86 11 4 2 20 -17 36 -44 38 -61 153 -251 167 -277 34 -62 173 -257 221 -311 6
-6 30 -35 55 -65 69 -82 209 -175 335 -225 76 -29 152 -56 175 -60 14 -3 39
-9 55 -14 17 -5 46 -11 65 -14 19 -3 46 -8 60 -12 14 -3 97 -7 185 -9 125 -3
183 1 265 15 109 20 236 56 315 90 25 11 47 20 50 20 5 1 94 48 150 80 45 25
184 121 223 153 89 75 233 219 297 297 20 25 44 54 53 65 57 68 242 344 242
361 0 3 11 21 24 42 19 31 116 211 116 216 0 6 -1050 -1 -1056 -6 -3 -4 -8
-23 -10 -43 -11 -114 -75 -266 -158 -374 -55 -72 -152 -162 -225 -209 -31 -21
-57 -40 -59 -44 -2 -5 -10 -8 -18 -8 -7 0 -31 -9 -52 -20 -108 -56 -303 -58
-491 -4 -137 39 -292 146 -376 259 -17 22 -32 42 -35 45 -4 3 -32 46 -64 97
-53 84 -62 113 -35 113 15 0 186 68 277 111 46 21 86 39 88 39 5 0 235 141
252 154 7 6 22 19 33 28 10 10 22 18 25 18 17 0 241 209 310 291 35 41 124
158 124 163 0 2 16 28 35 58 42 63 155 289 155 310 0 8 4 18 9 24 8 9 58 162
66 205 2 11 6 28 9 37 3 9 7 28 10 42 3 14 7 36 10 50 3 13 8 40 11 60 3 20 7
47 10 60 24 124 24 552 0 680 -2 14 -7 41 -9 60 -5 35 -10 58 -23 115 -3 17
-7 37 -9 45 -3 26 -63 217 -85 272 -35 89 -117 248 -176 338 -209 319 -526
581 -905 744 -89 38 -106 44 -158 61 -30 10 -59 20 -65 24 -5 3 -14 6 -20 8
-5 1 -58 15 -117 32 -60 16 -108 28 -108 25 0 -2 -11 1 -24 5 -30 12 -195 41
-267 47 -30 2 -66 7 -80 10 -26 7 -504 15 -510 10z m361 -217 c80 -24 108 -38
173 -87 146 -108 245 -278 326 -557 17 -59 27 -106 57 -250 11 -53 36 -257 49
-390 25 -269 25 -1020 0 -1260 -3 -25 -7 -66 -10 -92 -13 -123 -22 -192 -36
-268 -6 -33 -12 -71 -14 -85 -16 -116 -120 -439 -146 -456 -5 -3 -7 -10 -4
-15 4 -5 0 -9 -7 -9 -7 0 -29 22 -48 48 -94 126 -276 306 -400 395 -54 38
-130 86 -130 81 0 -3 -12 3 -27 13 -79 54 -268 111 -391 117 -77 3 -177 -11
-236 -33 -16 -7 -31 -10 -33 -8 -5 6 -12 42 -18 102 -4 28 -8 61 -10 75 -10
70 -24 273 -30 435 -5 125 -5 585 0 685 5 103 14 246 20 300 2 25 6 68 9 95
14 136 23 198 52 343 14 67 31 140 39 162 8 22 12 40 10 40 -2 0 6 24 16 53
11 28 22 60 24 69 8 37 85 188 125 248 73 108 207 221 278 235 12 2 27 7 33
11 6 3 28 9 48 11 20 3 38 7 41 10 11 11 189 -2 240 -18z m-603 -3203 c181
-21 444 -219 654 -492 67 -86 66 -82 17 -103 -128 -57 -302 -58 -438 -4 -102
41 -192 115 -257 212 -21 31 -40 58 -43 61 -16 15 -101 206 -120 272 -8 25 -5
28 35 44 24 9 47 14 52 11 5 -3 15 -2 23 3 8 5 17 7 20 6 3 -2 28 -6 57 -10z"/>
</g>
</svg>
